<svg version="1.1" id="Layer_1" xmlns="http://www.w3.org/2000/svg" xmlns:xlink="http://www.w3.org/1999/xlink" x="0px" y="0px"
	 width="100%" viewBox="0 0 1186 250" enable-background="new 0 0 1186 250" xml:space="preserve">
<path fill="#1B1A1A" opacity="1.000000" stroke="none" 
	d="
M1185.000000,251.000000 
	C790.448059,251.000000 395.896088,251.000000 1.000000,251.000000 
	C1.000000,168.638962 1.000000,86.277428 1.468657,3.458073 
	C393.801483,3.000273 785.665649,3.000273 1177.529785,3.000599 
	C1184.998413,3.000605 1184.999634,3.002404 1184.999634,10.583344 
	C1185.000000,90.722229 1185.000000,170.861115 1185.000000,251.000000 
M553.061890,121.091202 
	C552.902039,120.925774 552.742126,120.760353 552.592957,119.789742 
	C553.311768,115.721313 554.030640,111.652893 554.745483,107.607239 
	C547.493347,103.204239 540.125671,105.720169 539.004700,113.451019 
	C537.601379,123.129715 536.995972,132.923401 536.011902,142.664001 
	C535.682922,145.920090 537.086792,147.319443 540.323853,147.022430 
	C541.313904,146.931580 542.319458,147.012146 543.317871,147.008102 
	C549.368225,146.983597 549.914490,146.394409 550.032288,140.510422 
	C550.095215,137.365723 550.151794,134.185257 550.656189,131.093491 
	C551.391479,126.585693 554.577209,125.173866 558.695312,125.195953 
	C558.695312,132.549744 558.695312,139.569092 558.695312,146.684647 
	C562.862915,146.684647 566.760010,146.684647 570.587158,146.684647 
	C572.332336,135.206253 574.107666,124.065300 575.640808,112.891136 
	C575.882080,111.132553 575.671692,108.389542 574.563599,107.532600 
	C570.410828,104.321335 562.275818,107.877182 561.429932,113.025078 
	C560.662354,117.697014 558.910950,121.309364 553.061890,121.091202 
M637.660645,107.527161 
	C634.764648,104.867371 631.215820,105.181839 629.268127,107.786156 
	C626.610291,111.340172 625.159485,115.796814 623.191162,119.866478 
	C626.233887,121.158539 629.276611,122.450600 631.427368,123.363914 
	C633.532471,120.483299 634.874756,118.646553 636.216980,116.809792 
	C637.798462,118.930168 639.379883,121.050537 641.142822,123.414299 
	C631.414734,125.758057 623.228821,135.661926 623.170349,144.438400 
	C623.166321,145.039932 623.317810,145.797394 623.692505,146.220688 
	C625.686218,148.472885 634.824646,146.681030 636.106750,143.938660 
	C637.855103,140.199127 639.768005,136.536530 641.610413,132.840973 
	C642.071777,133.013626 642.533142,133.186295 642.994507,133.358963 
	C642.994507,134.790421 643.010437,136.222107 642.991943,137.653320 
	C642.865173,147.453751 642.859802,147.334137 652.760132,147.079086 
	C656.065552,146.993927 657.203552,145.734512 657.049561,142.571960 
	C656.883911,139.170395 657.012024,135.754501 657.012024,132.344864 
	C657.400696,132.211563 657.789368,132.078278 658.178040,131.944977 
	C659.428101,134.126862 661.079773,136.175369 661.856750,138.514420 
	C664.772095,147.291229 667.624390,149.114334 676.749207,147.443512 
	C677.102173,135.828598 671.461853,127.574547 660.920654,124.280045 
	C663.053345,118.064133 666.019287,117.364700 671.419861,122.648643 
	C673.480896,118.860664 675.647095,115.391754 677.302551,111.694191 
	C678.988220,107.929359 675.838379,103.979233 672.149902,105.592056 
	C668.404785,107.229637 665.286499,110.411789 662.097961,113.154831 
	C660.867920,114.212959 660.199829,115.924248 659.275757,117.337967 
	C658.982422,117.187157 658.689148,117.036354 658.395813,116.885544 
	C658.859924,113.400055 659.324036,109.914558 659.788757,106.424431 
	C645.309875,105.519005 645.291748,104.087196 644.973389,118.330925 
	C644.964478,118.728500 644.811401,119.122864 644.871399,118.846046 
	C642.768799,115.464661 640.473206,111.772888 637.660645,107.527161 
M367.541016,172.232300 
	C370.649475,163.237320 373.757935,154.242340 377.124146,144.501526 
	C369.193085,144.502487 367.556763,139.897995 366.904755,134.663986 
	C366.186676,128.899780 365.553314,123.112427 365.217987,117.315788 
	C364.540710,105.608459 364.634033,105.600235 352.871063,106.075485 
	C352.597992,106.086525 352.335449,106.358780 352.067993,106.509201 
	C348.660156,116.927177 344.467834,126.991074 339.571106,136.699722 
	C338.259796,139.299622 334.806152,140.823959 332.322357,142.825150 
	C331.276642,143.667694 329.332733,144.399521 329.263306,145.295303 
	C328.528473,154.777313 328.089417,164.282257 327.533966,174.417816 
	C331.898102,173.525177 334.906311,172.909882 337.796387,172.318741 
	C338.205750,165.699768 338.363922,159.534882 339.082581,153.436050 
	C339.341980,151.234711 340.809723,147.451050 341.959412,147.360764 
	C349.129639,146.797562 356.365997,147.076675 363.934235,147.076675 
	C362.808777,154.854340 361.728577,161.701050 360.889679,168.577194 
	C360.694763,170.174652 360.904022,173.008789 361.658051,173.285965 
	C363.198730,173.852295 365.235809,173.068253 367.541016,172.232300 
M810.058899,117.651436 
	C809.898010,126.538742 810.882629,127.173637 821.942688,125.314110 
	C826.409546,109.951111 826.409546,109.951111 834.363831,111.550606 
	C830.633667,123.247429 824.260193,134.111694 822.707031,147.005127 
	C834.160339,147.005127 844.952026,147.176880 855.726257,146.821732 
	C857.360474,146.767853 860.451721,143.963547 860.251587,142.946335 
	C859.079773,136.989273 857.429199,131.074478 855.320496,125.374672 
	C854.203491,122.355606 851.498962,120.837425 847.974426,122.570061 
	C847.173950,122.963562 846.131042,122.864113 843.965576,123.160492 
	C847.241821,117.388893 850.038513,112.461975 853.140808,106.996841 
	C851.518616,106.616318 850.186340,106.041199 848.850037,106.031860 
	C838.203247,105.957451 827.549133,105.801666 816.914429,106.168068 
	C815.048584,106.232361 812.698914,108.272934 811.595764,110.039604 
	C810.447937,111.877937 810.539673,114.490288 810.058899,117.651436 
M616.034851,139.797287 
	C616.998230,130.373444 618.115967,120.960564 618.787292,111.515961 
	C618.912903,109.749016 617.161133,106.251785 616.429260,106.292770 
	C612.968201,106.486572 608.078430,103.531082 606.555298,109.606766 
	C605.636780,113.270630 604.672852,116.923096 603.733337,120.565002 
	C600.599976,120.271217 597.865784,120.014862 594.994507,119.745651 
	C595.319580,117.934502 595.601257,116.474495 595.841736,115.007729 
	C597.655640,103.942261 596.420532,106.395584 587.691895,105.936035 
	C584.783081,105.782898 583.365784,106.979294 582.777710,109.622719 
	C582.058655,112.855019 581.059631,116.048965 580.635620,119.318382 
	C579.470581,128.300110 578.542786,137.312607 577.441772,147.012222 
	C580.690063,147.012222 582.858948,146.711609 584.911194,147.073288 
	C589.532349,147.887711 591.119202,145.485092 591.686401,141.484848 
	C592.469482,135.961700 593.386719,130.457565 594.286377,124.690025 
	C597.429016,125.196671 600.167664,125.638184 603.029419,126.099533 
	C602.447327,131.561859 601.795166,136.657776 601.426758,141.774124 
	C601.318298,143.279388 601.834290,146.101700 602.368896,146.177765 
	C606.257141,146.730896 610.269287,147.106613 614.128967,146.626633 
	C614.979553,146.520844 615.376465,142.766800 616.034851,139.797287 
M714.118591,108.528458 
	C710.593445,121.010750 709.287354,133.741364 709.082031,147.012222 
	C711.824829,147.012222 713.849426,146.748932 715.778931,147.065338 
	C720.217163,147.793152 722.115173,145.800156 722.665161,141.612579 
	C723.395752,136.050247 724.366211,130.519424 725.274170,124.715927 
	C728.311707,125.193367 731.058411,125.625099 733.991943,126.086197 
	C733.669861,129.316833 733.260864,132.257187 733.102417,135.210983 
	C732.410645,148.107834 732.437134,148.109833 745.531738,146.789291 
	C745.680786,146.774261 745.818970,146.651703 746.500183,146.307556 
	C747.620300,134.932220 748.898315,123.238510 749.789673,111.515396 
	C749.923645,109.753845 748.160095,106.251701 747.427002,106.292595 
	C743.965027,106.485725 739.072754,103.530243 737.552429,109.612007 
	C736.636108,113.277237 735.670410,116.930115 734.732666,120.566536 
	C731.597168,120.271217 728.863342,120.013741 725.992554,119.743362 
	C726.319885,117.922165 726.598999,116.461143 726.841614,114.994087 
	C727.112244,113.357651 727.548523,111.714088 727.535034,110.076706 
	C727.525269,108.883820 727.251892,107.344521 726.480896,106.579613 
	C724.916260,105.027222 716.649536,106.050461 714.118591,108.528458 
M451.440338,122.090477 
	C451.982239,118.719307 452.524109,115.348145 453.052948,112.058395 
	C456.733795,112.058395 459.863159,112.058395 463.348267,112.058395 
	C463.348267,114.089752 463.348267,115.941422 463.348267,119.504601 
	C468.752625,115.210274 473.092773,111.761581 477.432922,108.312881 
	C477.198486,107.780434 476.964020,107.247986 476.729584,106.715546 
	C475.039612,106.472954 473.350586,106.027977 471.659546,106.020058 
	C458.996918,105.960762 446.333862,105.987770 433.670959,105.987770 
	C419.784119,105.987762 419.784119,105.987770 416.655121,119.793617 
	C414.715393,128.352142 414.715607,128.356476 423.124084,127.969177 
	C424.915833,127.886650 426.705536,127.760139 428.307159,127.665115 
	C429.535706,123.061852 430.707092,118.921799 431.735229,114.746468 
	C432.653229,111.018394 434.764130,110.079384 438.367401,111.515884 
	C437.241913,119.783722 436.011108,127.835449 435.077271,135.921478 
	C433.736176,147.534256 434.125275,147.826401 447.231964,146.635818 
	C448.534943,138.880310 449.873718,130.911865 451.440338,122.090477 
M783.938904,156.049118 
	C783.082275,164.010452 780.939270,171.896378 781.454407,180.407990 
	C782.843323,179.904694 783.240906,179.879868 783.432983,179.668411 
	C783.986206,179.059158 784.494080,178.399841 784.953735,177.715805 
	C790.165222,169.959946 793.276672,161.567825 793.097961,152.061127 
	C793.069885,150.567200 793.725647,148.416229 794.822205,147.643677 
	C807.616760,138.630020 809.330322,123.337151 802.968933,109.291199 
	C801.035889,105.023102 796.795227,104.214638 793.924683,108.057442 
	C790.426270,112.740768 786.230774,117.918961 785.390625,123.355072 
	C783.781372,133.767273 784.329041,144.512833 783.938904,156.049118 
M510.599854,127.728508 
	C509.766998,121.822601 509.036346,115.899132 508.026581,110.023628 
	C507.785767,108.622452 506.768280,106.382591 505.842163,106.238625 
	C501.695709,105.594055 497.453247,105.567520 492.773193,105.289879 
	C493.163696,107.250374 493.444397,108.682846 493.734894,110.113319 
	C494.431244,113.542023 493.792511,116.299179 491.276550,119.156792 
	C485.629913,125.570198 479.283997,131.769470 479.926178,141.539932 
	C480.158783,145.079208 481.848236,146.594299 485.091125,146.970276 
	C491.693298,147.735748 493.326752,146.812576 496.359467,140.639053 
	C496.950073,139.436798 497.650909,138.288651 498.796448,136.221207 
	C498.916809,138.041641 498.979584,138.688766 498.999481,139.337204 
	C499.234741,147.010056 499.233063,147.010132 506.674957,147.010391 
	C509.287842,147.010468 511.900726,147.010391 514.597107,147.010391 
	C513.259949,140.559448 512.018066,134.567917 510.599854,127.728508 
M404.780762,106.409966 
	C400.271118,106.000755 395.761475,105.591553 391.182037,105.176010 
	C391.182037,106.582565 390.950684,107.488548 391.219269,108.207809 
	C393.072510,113.170418 391.462219,116.823769 388.000580,120.713348 
	C384.308960,124.861397 380.927155,129.647675 378.789093,134.734894 
	C375.147552,143.399399 378.628082,147.936722 387.572601,146.839890 
	C389.586487,146.592941 391.616699,144.466141 393.131958,142.755325 
	C394.531342,141.175385 395.250000,138.992523 396.796539,136.081039 
	C396.920502,138.048340 396.980255,138.700043 396.999847,139.352951 
	C397.229767,147.010056 397.228180,147.010132 404.690369,147.010391 
	C407.298248,147.010468 409.906158,147.010391 412.115936,147.010391 
	C409.825775,133.419769 407.603241,120.230309 404.780762,106.409966 
M695.918457,113.372040 
	C699.202759,111.973305 702.487000,110.574562 706.031555,109.064972 
	C705.852356,107.614235 705.654114,106.009552 705.407166,104.010315 
	C697.131958,104.241783 689.674377,105.992775 683.959595,111.955139 
	C682.117920,113.876602 680.522522,116.753036 680.262024,119.338432 
	C679.432251,127.575653 681.016846,135.586639 684.838867,142.964417 
	C687.639526,148.370789 692.575439,149.604248 699.008301,147.016342 
	C704.230164,144.915604 706.537354,140.437653 705.281921,134.839981 
	C696.526245,137.321686 695.779480,136.963684 695.481812,130.141769 
	C702.761108,127.403717 704.264587,125.239578 702.888550,118.841988 
	C699.707397,119.960091 696.556396,121.067604 691.862732,122.717308 
	C693.377197,118.900841 694.366028,116.409019 695.918457,113.372040 
M778.933044,135.439758 
	C777.900513,135.429794 776.749512,135.113617 775.854614,135.459641 
	C770.088562,137.689209 768.657227,136.683212 768.520325,130.094193 
	C775.754822,127.461586 777.353455,125.134689 775.819946,118.848686 
	C772.659790,119.964905 769.525391,121.072029 766.263733,122.224098 
	C766.079407,114.240150 767.368469,112.973534 779.023376,109.342346 
	C778.833984,107.657799 778.638000,105.914459 778.328857,103.164551 
	C773.153564,104.553909 768.409180,105.376427 764.020569,107.103104 
	C755.821411,110.329033 752.362183,115.829399 753.156311,124.606171 
	C753.615540,129.682510 754.717712,134.801178 756.294983,139.652222 
	C758.638672,146.860443 762.192932,148.864807 768.963745,147.887985 
	C775.046631,147.010422 778.373535,143.123428 778.933044,135.439758 
z"/>
<path fill="#000000" opacity="1.000000" stroke="none" 
	d="
M1185.500000,251.000000 
	C1185.000000,170.861115 1185.000000,90.722229 1184.999634,10.583344 
	C1184.999634,3.002404 1184.998413,3.000605 1177.529785,3.000599 
	C785.665649,3.000273 393.801483,3.000273 1.468657,3.000120 
	C1.333333,2.333333 1.548027,1.216341 2.023962,1.090954 
	C3.114909,0.803541 4.333333,1.000000 5.500000,1.000000 
	C399.333344,1.000000 793.166687,1.000000 1187.000000,1.000000 
	C1187.000000,82.833336 1187.005249,164.666672 1186.958374,246.499969 
	C1186.957397,248.000168 1186.333374,249.500000 1185.500000,251.000000 
z"/>
<path fill="#F9F9F9" opacity="1.000000" stroke="none" 
	d="
M637.919189,107.804138 
	C640.473206,111.772888 642.768799,115.464661 644.871399,118.846046 
	C644.811401,119.122864 644.964478,118.728500 644.973389,118.330925 
	C645.291748,104.087196 645.309875,105.519005 659.788757,106.424431 
	C659.324036,109.914558 658.859924,113.400055 658.395813,116.885544 
	C658.689148,117.036354 658.982422,117.187157 659.275757,117.337967 
	C660.199829,115.924248 660.867920,114.212959 662.097961,113.154831 
	C665.286499,110.411789 668.404785,107.229637 672.149902,105.592056 
	C675.838379,103.979233 678.988220,107.929359 677.302551,111.694191 
	C675.647095,115.391754 673.480896,118.860664 671.419861,122.648643 
	C666.019287,117.364700 663.053345,118.064133 660.920654,124.280045 
	C671.461853,127.574547 677.102173,135.828598 676.749207,147.443512 
	C667.624390,149.114334 664.772095,147.291229 661.856750,138.514420 
	C661.079773,136.175369 659.428101,134.126862 658.178040,131.944977 
	C657.789368,132.078278 657.400696,132.211563 657.012024,132.344864 
	C657.012024,135.754501 656.883911,139.170395 657.049561,142.571960 
	C657.203552,145.734512 656.065552,146.993927 652.760132,147.079086 
	C642.859802,147.334137 642.865173,147.453751 642.991943,137.653320 
	C643.010437,136.222107 642.994507,134.790421 642.994507,133.358963 
	C642.533142,133.186295 642.071777,133.013626 641.610413,132.840973 
	C639.768005,136.536530 637.855103,140.199127 636.106750,143.938660 
	C634.824646,146.681030 625.686218,148.472885 623.692505,146.220688 
	C623.317810,145.797394 623.166321,145.039932 623.170349,144.438400 
	C623.228821,135.661926 631.414734,125.758057 641.142822,123.414299 
	C639.379883,121.050537 637.798462,118.930168 636.216980,116.809799 
	C634.874756,118.646553 633.532471,120.483299 631.427368,123.363914 
	C629.276611,122.450600 626.233887,121.158539 623.191162,119.866478 
	C625.159485,115.796814 626.610291,111.340172 629.268127,107.786156 
	C631.215820,105.181839 634.764648,104.867371 637.919189,107.804138 
z"/>
<path fill="#F9F8F8" opacity="1.000000" stroke="none" 
	d="
M367.304718,172.536346 
	C365.235809,173.068253 363.198730,173.852295 361.658051,173.285965 
	C360.904022,173.008789 360.694763,170.174652 360.889679,168.577194 
	C361.728577,161.701050 362.808777,154.854340 363.934235,147.076675 
	C356.365997,147.076675 349.129639,146.797562 341.959412,147.360764 
	C340.809723,147.451050 339.341980,151.234711 339.082581,153.436050 
	C338.363922,159.534882 338.205750,165.699768 337.796387,172.318741 
	C334.906311,172.909882 331.898102,173.525177 327.533966,174.417816 
	C328.089417,164.282257 328.528473,154.777313 329.263306,145.295303 
	C329.332733,144.399521 331.276642,143.667694 332.322357,142.825150 
	C334.806152,140.823959 338.259796,139.299622 339.571106,136.699722 
	C344.467834,126.991074 348.660156,116.927177 352.067993,106.509201 
	C352.335449,106.358780 352.597992,106.086525 352.871063,106.075485 
	C364.634033,105.600235 364.540710,105.608459 365.217987,117.315788 
	C365.553314,123.112427 366.186676,128.899780 366.904755,134.663986 
	C367.556763,139.897995 369.193085,144.502487 377.124146,144.501526 
	C373.757935,154.242340 370.649475,163.237320 367.304718,172.536346 
M345.627228,143.084961 
	C348.490936,143.416031 351.354645,143.747101 354.589050,144.121033 
	C354.034546,140.048645 353.597809,136.758331 353.135773,133.471588 
	C352.701660,130.383408 352.240845,127.298988 351.791779,124.212914 
	C348.483185,129.839310 346.010132,135.429993 343.706543,141.089661 
	C343.505188,141.584366 344.416962,142.532150 345.627228,143.084961 
z"/>
<path fill="#FAFAFA" opacity="1.000000" stroke="none" 
	d="
M810.074097,117.207809 
	C810.539673,114.490288 810.447937,111.877937 811.595764,110.039604 
	C812.698914,108.272934 815.048584,106.232361 816.914429,106.168068 
	C827.549133,105.801666 838.203247,105.957451 848.850037,106.031860 
	C850.186340,106.041199 851.518616,106.616318 853.140808,106.996841 
	C850.038513,112.461975 847.241821,117.388893 843.965576,123.160492 
	C846.131042,122.864113 847.173950,122.963562 847.974426,122.570061 
	C851.498962,120.837425 854.203491,122.355606 855.320496,125.374672 
	C857.429199,131.074478 859.079773,136.989273 860.251587,142.946335 
	C860.451721,143.963547 857.360474,146.767853 855.726257,146.821732 
	C844.952026,147.176880 834.160339,147.005127 822.707031,147.005127 
	C824.260193,134.111694 830.633667,123.247429 834.363831,111.550606 
	C826.409546,109.951111 826.409546,109.951111 821.942688,125.314110 
	C810.882629,127.173637 809.898010,126.538742 810.074097,117.207809 
M838.632446,137.998627 
	C838.353149,142.469955 840.427612,143.138412 846.923218,139.970413 
	C845.290649,137.038940 843.685425,134.156525 842.080139,131.274094 
	C841.554932,131.423782 841.029663,131.573456 840.504456,131.723145 
	C839.927673,133.550186 839.350891,135.377228 838.632446,137.998627 
z"/>
<path fill="#F9F9F9" opacity="1.000000" stroke="none" 
	d="
M616.008545,140.245010 
	C615.376465,142.766800 614.979553,146.520844 614.128967,146.626633 
	C610.269287,147.106613 606.257141,146.730896 602.368896,146.177765 
	C601.834290,146.101700 601.318298,143.279388 601.426758,141.774124 
	C601.795166,136.657776 602.447327,131.561859 603.029419,126.099533 
	C600.167664,125.638184 597.429016,125.196671 594.286377,124.690025 
	C593.386719,130.457565 592.469482,135.961700 591.686401,141.484848 
	C591.119202,145.485092 589.532349,147.887711 584.911194,147.073288 
	C582.858948,146.711609 580.690063,147.012222 577.441772,147.012222 
	C578.542786,137.312607 579.470581,128.300110 580.635620,119.318382 
	C581.059631,116.048965 582.058655,112.855019 582.777710,109.622719 
	C583.365784,106.979294 584.783081,105.782898 587.691895,105.936035 
	C596.420532,106.395584 597.655640,103.942261 595.841736,115.007729 
	C595.601257,116.474495 595.319580,117.934502 594.994507,119.745651 
	C597.865784,120.014862 600.599976,120.271217 603.733337,120.565002 
	C604.672852,116.923096 605.636780,113.270630 606.555298,109.606766 
	C608.078430,103.531082 612.968201,106.486572 616.429260,106.292770 
	C617.161133,106.251785 618.912903,109.749016 618.787292,111.515961 
	C618.115967,120.960564 616.998230,130.373444 616.008545,140.245010 
z"/>
<path fill="#F9F9F9" opacity="1.000000" stroke="none" 
	d="
M714.293579,108.151718 
	C716.649536,106.050461 724.916260,105.027222 726.480896,106.579613 
	C727.251892,107.344521 727.525269,108.883820 727.535034,110.076706 
	C727.548523,111.714088 727.112244,113.357651 726.841614,114.994087 
	C726.598999,116.461143 726.319885,117.922165 725.992554,119.743362 
	C728.863342,120.013741 731.597168,120.271217 734.732666,120.566536 
	C735.670410,116.930115 736.636108,113.277237 737.552429,109.612007 
	C739.072754,103.530243 743.965027,106.485725 747.427002,106.292595 
	C748.160095,106.251701 749.923645,109.753845 749.789673,111.515396 
	C748.898315,123.238510 747.620300,134.932220 746.500183,146.307556 
	C745.818970,146.651703 745.680786,146.774261 745.531738,146.789291 
	C732.437134,148.109833 732.410645,148.107834 733.102417,135.210983 
	C733.260864,132.257187 733.669861,129.316833 733.991943,126.086197 
	C731.058411,125.625099 728.311707,125.193367 725.274170,124.715927 
	C724.366211,130.519424 723.395752,136.050247 722.665161,141.612579 
	C722.115173,145.800156 720.217163,147.793152 715.778931,147.065338 
	C713.849426,146.748932 711.824829,147.012222 709.082031,147.012222 
	C709.287354,133.741364 710.593445,121.010750 714.293579,108.151718 
z"/>
<path fill="#FBFBFB" opacity="1.000000" stroke="none" 
	d="
M553.498352,121.625877 
	C558.910950,121.309364 560.662354,117.697014 561.429932,113.025078 
	C562.275818,107.877182 570.410828,104.321335 574.563599,107.532600 
	C575.671692,108.389542 575.882080,111.132553 575.640808,112.891136 
	C574.107666,124.065300 572.332336,135.206253 570.587158,146.684647 
	C566.760010,146.684647 562.862915,146.684647 558.695312,146.684647 
	C558.695312,139.569092 558.695312,132.549744 558.695312,125.195953 
	C554.577209,125.173866 551.391479,126.585693 550.656189,131.093491 
	C550.151794,134.185257 550.095215,137.365723 550.032288,140.510422 
	C549.914490,146.394409 549.368225,146.983597 543.317871,147.008102 
	C542.319458,147.012146 541.313904,146.931580 540.323853,147.022430 
	C537.086792,147.319443 535.682922,145.920090 536.011902,142.664001 
	C536.995972,132.923401 537.601379,123.129715 539.004700,113.451019 
	C540.125671,105.720169 547.493347,103.204239 554.745483,107.607239 
	C554.030640,111.652893 553.311768,115.721313 552.399048,120.384598 
	C552.636230,121.194931 553.067322,121.410400 553.498352,121.625877 
z"/>
<path fill="#F9F9F9" opacity="1.000000" stroke="none" 
	d="
M451.326416,122.516953 
	C449.873718,130.911865 448.534943,138.880310 447.231964,146.635818 
	C434.125275,147.826401 433.736176,147.534256 435.077271,135.921478 
	C436.011108,127.835449 437.241913,119.783722 438.367401,111.515884 
	C434.764130,110.079384 432.653229,111.018394 431.735229,114.746468 
	C430.707092,118.921799 429.535706,123.061852 428.307159,127.665115 
	C426.705536,127.760139 424.915833,127.886650 423.124084,127.969177 
	C414.715607,128.356476 414.715393,128.352142 416.655121,119.793617 
	C419.784119,105.987770 419.784119,105.987762 433.670959,105.987770 
	C446.333862,105.987770 458.996918,105.960762 471.659546,106.020058 
	C473.350586,106.027977 475.039612,106.472954 476.729584,106.715546 
	C476.964020,107.247986 477.198486,107.780434 477.432922,108.312881 
	C473.092773,111.761581 468.752625,115.210274 463.348267,119.504601 
	C463.348267,115.941422 463.348267,114.089752 463.348267,112.058395 
	C459.863159,112.058395 456.733795,112.058395 453.052948,112.058395 
	C452.524109,115.348145 451.982239,118.719307 451.326416,122.516953 
z"/>
<path fill="#F8F8F8" opacity="1.000000" stroke="none" 
	d="
M783.960327,155.584595 
	C784.329041,144.512833 783.781372,133.767273 785.390625,123.355072 
	C786.230774,117.918961 790.426270,112.740768 793.924683,108.057442 
	C796.795227,104.214638 801.035889,105.023102 802.968933,109.291199 
	C809.330322,123.337151 807.616760,138.630020 794.822205,147.643677 
	C793.725647,148.416229 793.069885,150.567200 793.097961,152.061127 
	C793.276672,161.567825 790.165222,169.959946 784.953735,177.715805 
	C784.494080,178.399841 783.986206,179.059158 783.432983,179.668411 
	C783.240906,179.879868 782.843323,179.904694 781.454407,180.407990 
	C780.939270,171.896378 783.082275,164.010452 783.960327,155.584595 
M797.079041,126.487434 
	C796.448608,126.645264 795.301147,126.725693 795.264160,126.972397 
	C794.537170,131.827652 793.939087,136.702225 793.314758,141.572876 
	C796.748718,137.317535 797.737793,132.493896 797.079041,126.487434 
z"/>
<path fill="#FAFAFA" opacity="1.000000" stroke="none" 
	d="
M510.687988,128.152451 
	C512.018066,134.567917 513.259949,140.559448 514.597107,147.010391 
	C511.900726,147.010391 509.287842,147.010468 506.674957,147.010391 
	C499.233063,147.010132 499.234741,147.010056 498.999481,139.337204 
	C498.979584,138.688766 498.916809,138.041641 498.796448,136.221207 
	C497.650909,138.288651 496.950073,139.436798 496.359467,140.639053 
	C493.326752,146.812576 491.693298,147.735748 485.091125,146.970276 
	C481.848236,146.594299 480.158783,145.079208 479.926178,141.539932 
	C479.283997,131.769470 485.629913,125.570198 491.276550,119.156792 
	C493.792511,116.299179 494.431244,113.542023 493.734894,110.113319 
	C493.444397,108.682846 493.163696,107.250374 492.773193,105.289879 
	C497.453247,105.567520 501.695709,105.594055 505.842163,106.238625 
	C506.768280,106.382591 507.785767,108.622452 508.026581,110.023628 
	C509.036346,115.899132 509.766998,121.822601 510.687988,128.152451 
M494.409668,124.363548 
	C491.204193,128.343414 490.695801,132.913147 491.637024,137.857468 
	C494.871887,134.190643 496.330505,129.866379 496.275146,125.014534 
	C496.270844,124.636223 495.387909,124.267944 494.409668,124.363548 
z"/>
<path fill="#FAFAFA" opacity="1.000000" stroke="none" 
	d="
M405.080750,106.725403 
	C407.603241,120.230309 409.825775,133.419769 412.115936,147.010391 
	C409.906158,147.010391 407.298248,147.010468 404.690369,147.010391 
	C397.228180,147.010132 397.229767,147.010056 396.999847,139.352951 
	C396.980255,138.700043 396.920502,138.048340 396.796539,136.081039 
	C395.250000,138.992523 394.531342,141.175385 393.131958,142.755325 
	C391.616699,144.466141 389.586487,146.592941 387.572601,146.839890 
	C378.628082,147.936722 375.147552,143.399399 378.789093,134.734894 
	C380.927155,129.647675 384.308960,124.861397 388.000580,120.713348 
	C391.462219,116.823769 393.072510,113.170418 391.219269,108.207809 
	C390.950684,107.488548 391.182037,106.582565 391.182037,105.176010 
	C395.761475,105.591553 400.271118,106.000755 405.080750,106.725403 
M389.185486,131.965439 
	C389.185486,133.940186 389.185486,135.914932 389.185486,137.889694 
	C392.998077,133.534546 394.918152,128.924927 392.756622,123.163055 
	C391.623901,125.828117 390.491180,128.493179 389.185486,131.965439 
z"/>
<path fill="#F9F9F9" opacity="1.000000" stroke="none" 
	d="
M695.636597,113.644615 
	C694.366028,116.409019 693.377197,118.900841 691.862732,122.717308 
	C696.556396,121.067604 699.707397,119.960091 702.888550,118.841988 
	C704.264587,125.239578 702.761108,127.403717 695.481812,130.141769 
	C695.779480,136.963684 696.526245,137.321686 705.281921,134.839981 
	C706.537354,140.437653 704.230164,144.915604 699.008301,147.016342 
	C692.575439,149.604248 687.639526,148.370789 684.838867,142.964417 
	C681.016846,135.586639 679.432251,127.575653 680.262024,119.338432 
	C680.522522,116.753036 682.117920,113.876602 683.959595,111.955139 
	C689.674377,105.992775 697.131958,104.241783 705.407166,104.010315 
	C705.654114,106.009552 705.852356,107.614235 706.031555,109.064972 
	C702.487000,110.574562 699.202759,111.973305 695.636597,113.644615 
z"/>
<path fill="#F9F9F9" opacity="1.000000" stroke="none" 
	d="
M778.957642,135.811249 
	C778.373535,143.123428 775.046631,147.010422 768.963745,147.887985 
	C762.192932,148.864807 758.638672,146.860443 756.294983,139.652222 
	C754.717712,134.801178 753.615540,129.682510 753.156311,124.606171 
	C752.362183,115.829399 755.821411,110.329033 764.020569,107.103104 
	C768.409180,105.376427 773.153564,104.553909 778.328857,103.164551 
	C778.638000,105.914459 778.833984,107.657799 779.023376,109.342346 
	C767.368469,112.973534 766.079407,114.240150 766.263733,122.224098 
	C769.525391,121.072029 772.659790,119.964905 775.819946,118.848686 
	C777.353455,125.134689 775.754822,127.461586 768.520325,130.094193 
	C768.657227,136.683212 770.088562,137.689209 775.854614,135.459641 
	C776.749512,135.113617 777.900513,135.429794 778.957642,135.811249 
z"/>
<path fill="#242323" opacity="1.000000" stroke="none" 
	d="
M345.219482,143.177216 
	C344.416962,142.532150 343.505188,141.584366 343.706543,141.089661 
	C346.010132,135.429993 348.483185,129.839310 351.791779,124.212914 
	C352.240845,127.298988 352.701660,130.383408 353.135773,133.471588 
	C353.597809,136.758331 354.034546,140.048645 354.589050,144.121033 
	C351.354645,143.747101 348.490936,143.416031 345.219482,143.177216 
z"/>
<path fill="#272626" opacity="1.000000" stroke="none" 
	d="
M838.703308,137.601456 
	C839.350891,135.377228 839.927673,133.550186 840.504456,131.723145 
	C841.029663,131.573456 841.554932,131.423782 842.080139,131.274094 
	C843.685425,134.156525 845.290649,137.038940 846.923218,139.970413 
	C840.427612,143.138412 838.353149,142.469955 838.703308,137.601456 
z"/>
<path fill="#1B1A1A" opacity="1.000000" stroke="none" 
	d="
M553.280151,121.358536 
	C553.067322,121.410400 552.636230,121.194931 552.393738,120.787201 
	C552.742126,120.760353 552.902039,120.925774 553.280151,121.358536 
z"/>
<path fill="#2C2C2C" opacity="1.000000" stroke="none" 
	d="
M797.108154,126.882256 
	C797.737793,132.493896 796.748718,137.317535 793.314758,141.572876 
	C793.939087,136.702225 794.537170,131.827652 795.264160,126.972397 
	C795.301147,126.725693 796.448608,126.645264 797.108154,126.882256 
z"/>
<path fill="#2E2D2D" opacity="1.000000" stroke="none" 
	d="
M494.661499,124.129272 
	C495.387909,124.267944 496.270844,124.636223 496.275146,125.014534 
	C496.330505,129.866379 494.871887,134.190643 491.637024,137.857468 
	C490.695801,132.913147 491.204193,128.343414 494.661499,124.129272 
z"/>
<path fill="#2E2D2D" opacity="1.000000" stroke="none" 
	d="
M389.271973,131.561844 
	C390.491180,128.493179 391.623901,125.828117 392.756622,123.163055 
	C394.918152,128.924927 392.998077,133.534546 389.185486,137.889694 
	C389.185486,135.914932 389.185486,133.940186 389.271973,131.561844 
z"/>
</svg>
